# xmcd
#
# Track frame offsets: 
#        150
#        18962
#        45742
#        67955
#        84857
#        101357
#        123890
#        148045
#        165815
#        195227
#
# Disc length: 2936 seconds
#
# Revision: 0
# Processed by: cddbd v1.4PL0 Copyright (c) Steve Scherf et al.
# Submitted via: ExactAudioCopy v0.90a11
#
DISCID=6a0b760a
DTITLE=Sheri Rathje - Howl at the Moon
DYEAR=1900
DGENRE=
TTITLE0=Under the Sun
TTITLE1=Biker Chic
TTITLE2=Pilot
TTITLE3=One Sided Love
TTITLE4=This House is on Fire
TTITLE5=Howl at the Moon
TTITLE6=A Good Friend
TTITLE7=My Father's Guitar
TTITLE8=When I Woke Up
TTITLE9=Belly Dancer
EXTD=
EXTT0=
EXTT1=
EXTT2=
EXTT3=
EXTT4=
EXTT5=
EXTT6=
EXTT7=
EXTT8=
EXTT9=
PLAYORDER=
